# xmcd
#
# Track frame offsets: 
#        150
#        17693
#        37055
#        60478
#        77434
#        91057
#        109927
#        126997
#        145903
#        162247
#        182616
#
# Disc length: 2816 seconds
#
# Revision: 1
# Processed by: cddbd v1.5.2PL0 Copyright (c) Steve Scherf et al.
# Submitted via: ExactAudioCopyFreeDBPlugin 1.0
#
DISCID=880afe0b
DTITLE=H. P. Lange - Hugo Rasmussen - Troels Jensen - Saturday Night -
DTITLE=Sunday Morning - Live
DYEAR=2011
DGENRE=Blues
TTITLE0=New Dekalb Blues
TTITLE1=God Don't Never Change
TTITLE2=Lies And Cheats
TTITLE3=Walking Add For Love
TTITLE4=Ain't Superstitious
TTITLE5=Hold On Me
TTITLE6=Jesus's Blood
TTITLE7=Keep It Clean
TTITLE8=Boogie Woogie Man
TTITLE9=Paranoid Blues
TTITLE10=Somebody On Your Bond
EXTD=
EXTT0=
EXTT1=
EXTT2=
EXTT3=
EXTT4=
EXTT5=
EXTT6=
EXTT7=
EXTT8=
EXTT9=
EXTT10=
PLAYORDER=
